<svg height="480pt" viewBox="-2 0 479 480" width="480pt" xmlns="http://www.w3.org/2000/svg"><path d="m86.394531 204.566406v267.433594c0 4.417969 3.582031 8 8 8h288c4.417969 0 8-3.582031 8-8v-267.433594l74.105469 80.839844 11.792969-10.8125-88-96h-.039063c-1.503906-1.652344-3.628906-2.589844-5.859375-2.59375h-288c-2.234375.011719-4.359375.96875-5.855469 2.632812h-.039062l-88 96 11.792969 10.816407zm16 259.433594v-236.910156l24.53125 63.78125c1.1875 3.09375 4.15625 5.132812 7.46875 5.128906h208c3.3125.003906 6.285157-2.035156 7.472657-5.128906l24.527343-63.78125v236.910156zm3.648438-272h264.703125l-33.847656 88h-197.007813zm0 0"/><path d="m286.394531 312h-96c-4.417969 0-8 3.582031-8 8v32c0 4.417969 3.582031 8 8 8h96c4.417969 0 8-3.582031 8-8v-32c0-4.417969-3.582031-8-8-8zm-8 32h-80v-16h80zm0 0"/><path d="m238.394531 160c44.183594 0 80-35.816406 80-80s-35.816406-80-80-80c-44.179687 0-80 35.816406-80 80 .050781 44.164062 35.839844 79.953125 80 80zm0-144c35.347657 0 64 28.652344 64 64s-28.652343 64-64 64c-35.34375 0-64-28.652344-64-64 .042969-35.328125 28.671875-63.960938 64-64zm0 0"/><path d="m230.394531 120c2.121094 0 4.15625-.84375 5.65625-2.34375l48-48-11.3125-11.3125-42.34375 42.34375-26.34375-26.34375-11.3125 11.3125 32 32c1.5 1.5 3.535157 2.34375 5.65625 2.34375zm0 0"/></svg>