<?xml version="1.0" encoding="iso-8859-1"?>
<!-- Generator: Adobe Illustrator 19.0.0, SVG Export Plug-In . SVG Version: 6.00 Build 0)  -->
<svg version="1.1" id="Capa_1" xmlns="http://www.w3.org/2000/svg" xmlns:xlink="http://www.w3.org/1999/xlink" x="0px" y="0px"
	 viewBox="0 0 512 512" style="enable-background:new 0 0 512 512;" xml:space="preserve">
<g>
	<g>
		<path d="M492.522,118.3L266.433,3.743l-0.094-0.047c-10.067-5.012-22.029-4.9-32.002,0.3l-96.969,51.464
			c-0.788,0.334-1.545,0.739-2.27,1.205L18.896,118.337C7.24,124.44,0,136.398,0,149.559V362.44c0,13.161,7.24,25.118,18.896,31.221
			l215.345,114.292l0.097,0.051c5.086,2.652,10.691,3.981,16.297,3.981c5.385,0,10.772-1.226,15.704-3.682l226.183-114.604
			C504.538,387.69,512,375.618,512,362.18V149.82C512,136.381,504.538,124.308,492.522,118.3z M248.237,30.569
			c1.469-0.754,3.223-0.769,4.705-0.042l211.629,107.23l-82.364,41.005L175.308,69.275L248.237,30.569z M235.424,474.63
			L32.91,367.147l-0.097-0.051c-1.741-0.909-2.824-2.692-2.824-4.656V163.091l205.435,107.124V474.63z M250.577,244.295
			L46.272,137.76l97.024-51.493L349.171,195.21L250.577,244.295z M482.009,362.178c0.001,2.007-1.115,3.809-2.911,4.703
			L265.414,475.152V270.408l98.386-48.982v51.355c0,8.281,6.714,14.995,14.995,14.995s14.995-6.714,14.995-14.995v-66.286
			l88.219-43.92V362.178z"/>
	</g>
</g>
<g>
	<g>
		<path d="M178.041,297.941c-3.19-7.642-11.971-11.249-19.614-8.061l-24.559,10.251l-23.31-37.003
			c-4.414-7.008-13.672-9.107-20.68-4.695c-7.007,4.414-9.109,13.673-4.695,20.68l20.621,32.735l-18.612,7.769
			c-7.642,3.19-11.251,11.972-8.061,19.614c2.402,5.755,7.975,9.223,13.844,9.223c1.925,0,3.883-0.374,5.77-1.162l23.268-9.714
			l23.6,37.464c2.851,4.526,7.721,7.005,12.702,7.005c2.731,0,5.496-0.746,7.978-2.309c7.007-4.414,9.109-13.673,4.695-20.68
			l-20.911-33.195l19.901-8.308C177.622,314.364,181.231,305.582,178.041,297.941z"/>
	</g>
</g>
<g>
</g>
<g>
</g>
<g>
</g>
<g>
</g>
<g>
</g>
<g>
</g>
<g>
</g>
<g>
</g>
<g>
</g>
<g>
</g>
<g>
</g>
<g>
</g>
<g>
</g>
<g>
</g>
<g>
</g>
</svg>
